<?xml version="1.0" encoding="UTF-8"?>
<svg xmlns="http://www.w3.org/2000/svg" xmlns:xlink="http://www.w3.org/1999/xlink" width="44px" height="44px" viewBox="0 0 44 44" version="1.1">
<g id="surface1">
<path style=" stroke:none;fill-rule:nonzero;fill:rgb(0%,0%,0%);fill-opacity:1;" d="M 6.875 9.625 C 6.117188 9.625 5.5 9.007812 5.5 8.25 C 5.5 7.492188 6.117188 6.875 6.875 6.875 L 37.125 6.875 C 37.882812 6.875 38.5 7.492188 38.5 8.25 C 38.5 9.007812 37.882812 9.625 37.125 9.625 Z M 12.375 4.125 C 11.617188 4.125 11 3.507812 11 2.75 C 11 1.992188 11.617188 1.375 12.375 1.375 L 31.625 1.375 C 32.382812 1.375 33 1.992188 33 2.75 C 33 3.507812 32.382812 4.125 31.625 4.125 Z M 0 35.75 C 0 38.027344 1.847656 39.875 4.125 39.875 L 39.875 39.875 C 42.152344 39.875 44 38.027344 44 35.75 L 44 16.5 C 44 14.222656 42.152344 12.375 39.875 12.375 L 4.125 12.375 C 1.847656 12.375 0 14.222656 0 16.5 Z M 4.125 37.125 C 3.367188 37.125 2.75 36.507812 2.75 35.75 L 2.75 16.5 C 2.75 15.742188 3.367188 15.125 4.125 15.125 L 39.875 15.125 C 40.632812 15.125 41.25 15.742188 41.25 16.5 L 41.25 35.75 C 41.25 36.507812 40.632812 37.125 39.875 37.125 Z M 4.125 37.125 "/>
</g>
</svg>
